Title                            : Hereafter
Year                             : 2010
Genre                            : Drama | Fantasy
iMDB URL                         : http://www.imdb.com/title/tt1212419/

Complete name                    : Hereafter.2010.BRRIP.720P.H264-ZEKTORM.mp4
Format                           : MPEG-4
Format profile                   : Base Media
Codec ID                         : isom
File size                        : 2.34 GiB
Duration                         : 2h 9mn
Overall bit rate                 : 2601 Kbps
Subtitles                        : English (Format: srt)

Video
ID                               : 1
Format                           : AVC
Format/Info                      : Advanced Video Codec
Format profile                   : High@L4.0
Format settings, CABAC           : Yes
Format settings, ReFrames        : 12 frames
Codec ID                         : avc1
Codec ID/Info                    : Advanced Video Coding
Duration                         : 2h 9mn
Bit rate mode                    : Variable
Bit rate                         : 2410 Kbps
Width                            : 1280 pixels
Height                           : 528 pixels
Display aspect ratio             : 2.424
Frame rate mode                  : Constant
Frame rate                       : 23.976 fps
Resolution                       : 24 bits
Colorimetry                      : 4:2:0
Scan type                        : Progressive
Bits/(Pixel*Frame)               : 0.149
Stream size                      : 2.17 GiB (93%)
Title                            : Video
Writing library                  : x264

Audio
ID                               : 2
Format                           : AAC
Format/Info                      : Advanced Audio Codec
Format version                   : Version 4
Format profile                   : LC
Format settings, SBR             : Yes
Format settings, PS              : No
Codec ID                         : 40
Duration                         : 2h 9mn
Bit rate mode                    : Variable
Bit rate                         : 188 Kbps
Maximum bit rate                 : 267 Kbps
Channel(s)                       : 6 channels
Channel positions                : Front: L C R, Rear: L R, LFE
Sampling rate                    : 48.0 KHz
Resolution                       : 16 bits
Stream size                      : 173 MiB (7%)
Title                            : English
Language                         : English


Screenshots:
 
http://img844.imageshack.us/img844/1572/snaph1.png
 
http://img38.imageshack.us/img38/8751/snaph2.png
 
http://img816.imageshack.us/img816/6018/snaph3.png
 
http://img683.imageshack.us/img683/2186/snaph4.png
